<svg xmlns="http://www.w3.org/2000/svg" viewBox="0 0 1080 1080"><defs><style>.cls-1{isolation:isolate;}.cls-2{fill:#382663;}.cls-3{fill:#35599b;}.cls-4{fill:#f69320;}.cls-5{fill:#81b041;}.cls-6,.cls-7{fill:#fff;}.cls-7{opacity:0.3;}.cls-10,.cls-7,.cls-8,.cls-9{mix-blend-mode:overlay;}.cls-10,.cls-8{fill:#1d1d1b;}.cls-8{opacity:0.6;}.cls-9{opacity:0.7;}.cls-10{opacity:0.1;}</style></defs><title>quick pay svg</title><g class="cls-1"><g id="Layer_1" data-name="Layer 1"><path class="cls-2" d="M418.77,629.14a18.44,18.44,0,0,1-6,1,12.57,12.57,0,0,1-8.85-3.49,12.38,12.38,0,0,1-3.49-8.86,12.81,12.81,0,0,1,3.6-9.1,12.41,12.41,0,0,1,9.07-3.64,18.07,18.07,0,0,1,5.72.94l.25,9.14a7.59,7.59,0,0,0-5.07-2.37,4.77,4.77,0,0,0-3.5,1.47,5.12,5.12,0,0,0-1.26,3.42,4.75,4.75,0,0,0,1.41,3.46,5,5,0,0,0,3.56,1.36,6.71,6.71,0,0,0,4.86-2.26Z"/><path class="cls-2" d="M422.73,629.57v-24h10.84c2.52,0,5.14.29,7.34,2.49a8,8,0,0,1,2.27,5.9,6.42,6.42,0,0,1-1.34,4.28,5.72,5.72,0,0,1-3.31,1.91v.22a3.33,3.33,0,0,1,1.26,1.11l5.4,8.1h-10l-3.46-7a4.78,4.78,0,0,1-.32-.75l-.14.07v7.7Zm8.5-13.32h1a2.84,2.84,0,0,0,1.84-.54,1.88,1.88,0,0,0,.61-1.47,2.14,2.14,0,0,0-.47-1.44,1.86,1.86,0,0,0-1.47-.65h-1.51Z"/><path class="cls-2" d="M448.33,629.57v-24h16.2v6.59H457v2.23h6.8v6.3H457V623h7.7v6.59Z"/><path class="cls-2" d="M468.49,629.57v-24h9.25c2,0,7.12.18,10.62,3.64a11.8,11.8,0,0,1,3.24,8.67,11.25,11.25,0,0,1-3.1,8.32,11.82,11.82,0,0,1-8.6,3.38Zm8.64-7.34h.64a5.28,5.28,0,0,0,3.71-1.12,4.51,4.51,0,0,0,1.41-3.45,5,5,0,0,0-1.41-3.6,4.87,4.87,0,0,0-3.42-1.15h-.93Z"/><path class="cls-2" d="M495.31,629.57v-24H504v24Z"/><path class="cls-2" d="M511.58,629.57V613.16l-4.9.21v-7.81H525v7.81l-4.89-.21v16.41Z"/><path class="cls-2" d="M536.09,629.57v-24h8.71v16.27h7.35v7.74Z"/><path class="cls-2" d="M555.07,629.57v-24h8.71v24Z"/><path class="cls-2" d="M567.63,629.57l3.89-24h9l2.81,9.83a18.46,18.46,0,0,1,.54,2.77H584a10.51,10.51,0,0,1,.47-2.77l2.81-9.83h8.89l3.92,24h-8.38l-1.08-10.76a20.75,20.75,0,0,1-.15-2.38h-.14c-.11.61-.33,1.55-.47,2l-3.56,11.12h-5.11L578,619.06a10.24,10.24,0,0,1-.47-2.63h-.25c0,.47,0,1.41,0,1.87l-1.19,11.27Z"/><path class="cls-2" d="M604,629.57v-24h8.71v24Z"/><path class="cls-2" d="M620.26,629.57V613.16l-4.9.21v-7.81h18.36v7.81l-4.89-.21v16.41Z"/><path class="cls-2" d="M636.39,629.57v-24h16.2v6.59H645.1v2.23h6.8v6.3h-6.8V623h7.7v6.59Z"/><path class="cls-2" d="M656.55,629.57v-24h9.25c2,0,7.13.18,10.62,3.64a11.8,11.8,0,0,1,3.24,8.67,11.25,11.25,0,0,1-3.1,8.32,11.82,11.82,0,0,1-8.6,3.38Zm8.64-7.34h.64a5.28,5.28,0,0,0,3.71-1.12,4.51,4.51,0,0,0,1.41-3.45,5,5,0,0,0-1.41-3.6,4.87,4.87,0,0,0-3.42-1.15h-.93Z"/><path class="cls-3" d="M377.76,581H357.63l-9.24-12.13a33.41,33.41,0,0,1-8.34,3,52.1,52.1,0,0,1-24.28-.95,47.43,47.43,0,0,1-12.59-5.8,44.19,44.19,0,0,1-14.53-16.29,45.14,45.14,0,0,1-5.32-21.31,44.93,44.93,0,0,1,13.61-32.15,45.45,45.45,0,0,1,14.85-9.83,46.81,46.81,0,0,1,50.59,9.83,45.06,45.06,0,0,1,13.55,32.15,46.76,46.76,0,0,1-3.56,18.06A42,42,0,0,1,362,560.08Zm-33.87-44.76,4.5,6a18.69,18.69,0,0,0,2.91-6.57,29.69,29.69,0,0,0,1-7.4q0-11.37-6.33-18.77a21.55,21.55,0,0,0-32.51,0Q307,516.74,307,527.69q0,11.13,6.39,18.41a21.18,21.18,0,0,0,16.4,7.28,14.56,14.56,0,0,0,2.91-.35,11.14,11.14,0,0,0,3-.95l-12.25-15.81Z"/><path class="cls-3" d="M450.58,511.05V541.6q0,10.24-1.53,14.92a22.72,22.72,0,0,1-5.57,8.77,23.58,23.58,0,0,1-9.83,5.92,44.09,44.09,0,0,1-14,1.95,42.81,42.81,0,0,1-13.8-1.95,25.94,25.94,0,0,1-10.06-5.92,20.43,20.43,0,0,1-5.45-8.65q-1.59-4.62-1.6-15V511.05H408.9V543q0,7.53,2.55,10.78,2.31,3.43,8,3.43c3.75,0,6.45-1.1,8.08-3.31S430,548,430,543V511.05Z"/><path class="cls-3" d="M465.27,570.85v-59.8h21.08v59.8Zm2.66-75.19h.12a7.09,7.09,0,0,1,2.31-5.45,7.58,7.58,0,0,1,5.57-2.31,7.72,7.72,0,0,1,5.65,2.19,7.5,7.5,0,0,1,2.22,5.57,7.59,7.59,0,0,1-2.31,5.68,7.45,7.45,0,0,1-5.56,2.31,7.55,7.55,0,0,1-5.69-2.43A7.45,7.45,0,0,1,467.93,495.66Z"/><path class="cls-3" d="M546.5,530.71a23.12,23.12,0,0,0-5.92-4,13.47,13.47,0,0,0-6-1.24q-6.33,0-10,4.14t-3.73,11.25q0,6.87,3.85,10.9t10.36,4.14a14.56,14.56,0,0,0,6-1.3,17.63,17.63,0,0,0,5.33-3.91V569a43.78,43.78,0,0,1-7.64,3.19,34.44,34.44,0,0,1-7.75.95q-13.86,0-22.32-8.88a27.45,27.45,0,0,1-4.77-6.51,32.73,32.73,0,0,1-2.84-7.7,39.5,39.5,0,0,1-1-9.06q0-14.14,8.67-23t22.47-8.85a34.89,34.89,0,0,1,8.23.94,26.27,26.27,0,0,1,6.93,2.79Z"/><path class="cls-3" d="M559.59,570.85V479.08h20.72v58.08L602,511.05h26.17l-26.88,28.78,29.3,31H602.87l-22.56-26.58v26.58Z"/><path class="cls-4" d="M277.66,535.76l-113.55-3.84L277,528.1A44.26,44.26,0,0,0,277.66,535.76Z"/><polygon class="cls-4" points="283.38 551.11 186.82 547.84 280.23 544.69 283.38 551.11"/><path class="cls-4" d="M279.5,513a42.6,42.6,0,0,0-1.69,6.21l-91-3.07Z"/><polygon class="cls-4" points="284.4 503.17 198.04 500.25 289.16 497.16 284.4 503.17"/><path class="cls-4" d="M299.4,567,198,563.59l92.64-3.14a42.62,42.62,0,0,0,6.15,5C297.68,566,298.53,566.53,299.4,567Z"/><path class="cls-3" d="M280.23,544.69a46.32,46.32,0,0,0,2.07,4.49c.35.65.7,1.3,1.08,1.93Z"/><path class="cls-3" d="M289.16,497.16a44.87,44.87,0,0,0-4.76,6Z"/><path class="cls-4" d="M793.53,506a4.17,4.17,0,0,1,.51.3l16,12.52c5.35,4.19,10.71,8.37,16.05,12.59.62.49,1,.34,1.45-.18q3.63-4.15,7.3-8.3c3-3.42,6.18-6.69,9.37-9.94,4-4.07,8-8.11,12.22-12q7.08-6.58,14.46-12.82,8.54-7.21,17.48-13.88c7.53-5.63,15.32-10.89,23.29-15.87.75-.47,1.1-.47,1.46.43.79,2,1.66,4,2.56,5.92a1.42,1.42,0,0,1-.36,1.94c-3.82,3.34-7.39,6.94-10.91,10.58q-6.85,7.1-13.29,14.56-8.67,10-16.61,20.58C870.17,518.2,866,524.07,862,530a328.51,328.51,0,0,0-17.85,29.56,155.93,155.93,0,0,0-7.23,15.3c-.52,1.31-.53,1.32-1.56.28-5.93-6-11.9-12-17.77-18-3.39-3.5-6.9-6.89-10.25-10.43-3.56-3.75-7.3-7.31-10.86-11.05-3.33-3.48-6.8-6.81-10.11-10.3-2.28-2.4-4.64-4.71-6.95-7.07-.5-.52-.41-.82.09-1.22q5.15-4.11,10.28-8.25l3-2.39C793,506.28,793.17,506.06,793.53,506Z"/><path class="cls-4" d="M834,581.7s0,0-1-1c-4.83-4.88-9.7-9.73-14.49-14.64l-14.69,31h23.5Z"/><path class="cls-4" d="M790.83,537.81c-3.32-3.48-6.8-6.81-10.11-10.3-2.28-2.4-4.63-4.71-7-7.07-.5-.52-.41-.82.09-1.22q5.16-4.11,10.28-8.25a.2.2,0,0,0,.07-.06H772v9.87a23.1,23.1,0,0,0-8.41-8.85A22.09,22.09,0,0,0,752,509q-12.59,0-20.1,8.59t-7.51,23.28a44.22,44.22,0,0,0,1.83,13.19,30.63,30.63,0,0,0,5.32,10.18q7.11,8.78,19.1,8.77a24.23,24.23,0,0,0,12.09-2.9,28.09,28.09,0,0,0,9.38-9.12v9.71h19.42V538.55C791.3,538.31,791.06,538.06,790.83,537.81Zm-21.63,14q-3.75,4-10.13,4t-10.05-4q-3.78-4-3.78-11.05c0-4.64,1.26-8.35,3.78-11.1s5.8-4,10.05-4a13.05,13.05,0,0,1,10.15,4.14q3.74,3.9,3.74,11T769.2,551.83Zm22.31-40.92,0,0v0Z"/><path class="cls-5" d="M828.44,401.42c.11,23.54-27.09,70.62-43.28,82.94,9.41,2.83,27,9.2,33.66,16.45,14.76-4.22,55-53.81,51.71-71.25C857.34,421.94,828.44,401.42,828.44,401.42Z"/><path class="cls-3" d="M828.44,401.42c.11,23.54-27.09,70.62-43.28,82.94,9.41,2.83,27,9.2,33.66,16.45,14.76-4.22,55-53.81,51.71-71.25C857.34,421.94,828.44,401.42,828.44,401.42Z"/><path class="cls-6" d="M790.86,483.27l.73-.72c15.14-14.93,35.66-50.71,39.42-74.48l.19-1.2,1.09.76c8.82,6.17,25.09,17.41,35,23.29l.32.19v.35c.21,7.46-7,21.71-18.76,37.2S826,494.1,820.19,497.24l-.53.28-.44-.37C812,491,799,486.05,791.89,483.62Zm41.51-73.83c-4.21,23.6-23.93,58.06-38.88,73.27,8.53,3,19.59,7.52,26.39,13.1,5.81-3.37,16.41-13.13,27.63-27.88,11.44-15,18.49-28.8,18.51-36.09C856.47,426.12,841.3,415.67,832.37,409.44Z"/><path class="cls-7" d="M837.09,423.72c8.83,2.7,5.28-6.53,1.14-8.11C831.2,412.93,831.91,422.14,837.09,423.72Z"/><path class="cls-7" d="M855.08,431.91c-1.45,1.87,0,5.35,1.49,6.89,2.23,2.32,5.24,2.15,6.67-.46C865.44,434.32,859,426.88,855.08,431.91Z"/><path class="cls-7" d="M802.79,484.65c4,1.71,5.33-1,3.57-3.86-1.2-2-8.13-4.27-8.27-.58-.06,1.56,3.24,3.79,4.65,4.42Z"/><path class="cls-7" d="M815.46,490.64c1.14,1.31,3.24,3,5.31,2.65,3.18-.53,3.29-3.42,1.23-4.92C819.53,486.56,812,486.68,815.46,490.64Z"/><path class="cls-7" d="M830.22,439.23c-4.73,2.37-8.08,6.56-10.57,10.67a40,40,0,0,0-5.1,14.39c-.68,5.61,3.09,10.84,9.17,13.31,6.59,2.67,12.5-1.07,16.72-5.23,7.17-7.06,15.84-16.11,10.34-25.64C847.12,440.4,838.28,435.18,830.22,439.23Z"/><path class="cls-7" d="M830.22,439.23c-4.73,2.37-8.08,6.56-10.57,10.67a40,40,0,0,0-5.1,14.39c-.68,5.61,3.09,10.84,9.17,13.31,6.59,2.67,12.5-1.07,16.72-5.23,7.17-7.06,15.84-16.11,10.34-25.64C847.12,440.4,838.28,435.18,830.22,439.23Z"/><path class="cls-8" d="M841.32,473c6.57-6.47,16.55-16.31,10.51-26.77a19.71,19.71,0,0,0-11.77-9,14.73,14.73,0,0,0-10.42,1.07c-4.16,2.08-7.77,5.71-11,11.08a41.5,41.5,0,0,0-5.23,14.77,11.92,11.92,0,0,0,1.29,6.92h0a16.3,16.3,0,0,0,8.55,7.4C827.27,480.16,833.7,480.55,841.32,473Zm-17.6,4.56c-6.08-2.47-9.85-7.7-9.17-13.31a40,40,0,0,1,5.1-14.39c2.49-4.11,5.84-8.3,10.57-10.67,8.06-4.05,16.9,1.17,20.56,7.5,5.5,9.53-3.17,18.58-10.34,25.64C836.22,476.53,830.31,480.27,823.72,477.6Z"/><g class="cls-9"><path class="cls-6" d="M834.35,416.4c-2.15,2.59,1.71,7.74,5.29,7.12,0,0,0,0,0,0-3.49-.28-6.75-4.12-5.28-7.09Z"/></g><g class="cls-9"><path class="cls-6" d="M855.84,432c-2.67,2.74.85,8.07,4.71,8.09,0,0,0,0,0,0-3.37-.66-6.85-5.3-4.71-8Z"/></g><g class="cls-9"><path class="cls-6" d="M817.86,456c-3.25,4.89-3.84,10.93-.68,15.91,1.85,2.92,7.24,7.42,11.46,6.08,0,0,0,0,0,0-5,.94-9.9-4.54-11.77-8-2.42-4.41-1.67-9.77,1-14Z"/></g><g class="cls-9"><path class="cls-6" d="M847.79,441c7,4.23,8.07,14.11,4.09,20.23,0,0,0,0,0,0a14.52,14.52,0,0,0,2.38-10.86c-.77-3.48-2.28-8-6.42-9.46-.06,0-.12,0-.07.08Z"/></g><g class="cls-9"><path class="cls-6" d="M799.41,478.89c-2.51,2.1,1.62,4.49,3.58,5.28,0,0,0,0,0,0-1.66-1-5.66-3.21-3.58-5.25,0,0,0,0,0,0Z"/></g><g class="cls-9"><path class="cls-6" d="M816.48,487.74c-3.7.27.49,4,1.61,4.84,0,0,0,0,0,0-.87-1-4.65-4.16-1.63-4.77,0,0,0-.06,0-.05Z"/></g><path class="cls-7" d="M827.68,442.33c5.27-3.21,13.51,5.5,15.16,8.63,2.83,5.36,2.39,10.24,1.49,15.69.16-.95,3.13-3.33,3.79-4.38a19.11,19.11,0,0,0,2.53-5.93c1.08-4.94-.44-8.47-3.79-12.5-4.87-5.85-13.58-5.92-19.66-1.18Z"/><path class="cls-10" d="M818.66,457.5c-6.36,8.71,6.16,24.86,17.12,16.59,2.22-1.67,4.32-3.39,5.44-5.77-3.28,3.52-10.67,1.52-14.36.05a12.07,12.07,0,0,1-5.74-4.41c-1.21-1.95-1.4-4.34-2.46-6.46Z"/><g class="cls-9"><path class="cls-6" d="M823.46,425.24c-3.5,10.1-9.17,20-14.69,29.37A141.56,141.56,0,0,1,791,479.19s0,.05,0,0a159.76,159.76,0,0,0,17.83-23.79c6-9.48,11.75-19.65,14.68-30.18,0,0,0,0,0,0Z"/></g><path class="cls-5" d="M841.14,410.44c-2.82,23.44-35.68,67.76-53.29,78.53,9,3.69,25.62,11.65,31.39,19.49,15.18-2.83,61.28-48.45,60.2-66.11C867.29,433.54,841.14,410.44,841.14,410.44Z"/><path class="cls-3" d="M841.14,410.44c-2.82,23.44-35.68,67.76-53.29,78.53,9,3.69,25.62,11.65,31.39,19.49,15.18-2.83,61.28-48.45,60.2-66.11C867.29,433.54,841.14,410.44,841.14,410.44Z"/><path class="cls-6" d="M793.64,488.41l.82-.65c16.89-13.45,41.71-47.15,48.4-70.46l.34-1.17,1,.85c8,7,22.76,19.65,31.84,26.42l.29.22,0,.35c-.72,7.44-9.63,21-23.26,35.29S827.21,502.45,821,505l-.56.23-.39-.41c-6.38-6.76-18.7-12.93-25.47-16ZM844,418.79c-7.11,23.1-31,55.56-47.71,69.31,8.1,3.74,18.52,9.3,24.58,15.48,6.18-2.81,17.93-11.53,30.91-25.18,13.22-13.9,21.94-26.94,22.86-34.2C865.91,437.62,852.13,425.82,844,418.79Z"/><path class="cls-7" d="M847,433.44c8.45,3.5,6.06-6,2.14-8C842.44,422.15,842,431.38,847,433.44Z"/><path class="cls-7" d="M863.81,443.25c-1.68,1.74-.67,5.33.62,7,1.93,2.51,4.94,2.62,6.68.15C873.8,446.62,868.31,438.61,863.81,443.25Z"/><path class="cls-7" d="M805.32,490.89c3.74,2.08,5.42-.49,4-3.51-1-2.05-7.55-5-8.14-1.35-.26,1.56,2.74,4.08,4.07,4.83Z"/><path class="cls-7" d="M817.16,498c1,1.41,2.84,3.28,5,3.13,3.22-.24,3.69-3.09,1.83-4.79C821.71,494.35,814.23,493.76,817.16,498Z"/><path class="cls-7" d="M838.2,448.23c-5,1.93-8.83,5.78-11.82,9.64a41.71,41.71,0,0,0-6.85,13.85c-1.37,5.52,1.72,11.08,7.46,14.1,6.21,3.27,12.55.09,17.25-3.65,8-6.37,17.73-14.57,13.45-24.57C854.85,451,846.71,445,838.2,448.23Z"/><path class="cls-7" d="M838.2,448.23c-5,1.93-8.83,5.78-11.82,9.64a41.71,41.71,0,0,0-6.85,13.85c-1.37,5.52,1.72,11.08,7.46,14.1,6.21,3.27,12.55.09,17.25-3.65,8-6.37,17.73-14.57,13.45-24.57C854.85,451,846.71,445,838.2,448.23Z"/><path class="cls-8" d="M845,482.91c7.32-5.82,18.45-14.69,13.75-25.67a18.82,18.82,0,0,0-10.57-10,14.78,14.78,0,0,0-10.48.09c-4.4,1.69-8.43,5-12.33,10a42.8,42.8,0,0,0-7,14.21,11.84,11.84,0,0,0,.42,7h0a15.57,15.57,0,0,0,7.57,8.16C830.19,488.7,836.53,489.68,845,482.91Zm-18,2.91c-5.74-3-8.83-8.58-7.46-14.1a41.71,41.71,0,0,1,6.85-13.85c3-3.86,6.83-7.71,11.82-9.64,8.51-3.28,16.65,2.74,19.49,9.37,4.28,10-5.45,18.2-13.45,24.57C839.54,485.91,833.2,489.09,827,485.82Z"/><g class="cls-9"><path class="cls-6" d="M845.14,425.9c-2.45,2.37.74,7.86,4.37,7.58,0,0,0,0,0,0-3.44-.59-6.19-4.72-4.37-7.54Z"/></g><g class="cls-9"><path class="cls-6" d="M864.56,443.39c-3,2.47-.16,8.11,3.67,8.48,0,0,0,0,0,0-3.27-1-6.15-5.91-3.68-8.45,0,0,0,0,0,0Z"/></g><g class="cls-9"><path class="cls-6" d="M823.85,463.74c-3.83,4.56-5.17,10.52-2.65,15.77,1.48,3.08,6.27,8.06,10.63,7.12a0,0,0,0,0,0-.05c-5.12.47-9.27-5.43-10.71-9-1.85-4.62-.44-9.88,2.74-13.83Z"/></g><g class="cls-9"><path class="cls-6" d="M855.44,451.66c6.43,4.85,6.26,14.79,1.54,20.52,0,0,0,0,0,0a15,15,0,0,0,3.71-10.6c-.32-3.53-1.27-8.15-5.2-10,0,0-.12,0-.07.08Z"/></g><g class="cls-9"><path class="cls-6" d="M802.68,484.84c-2.76,1.86,1.06,4.62,2.9,5.59,0,0,0,0,0,0-1.51-1.18-5.22-3.72-2.91-5.56,0,0,0,0,0,0Z"/></g><g class="cls-9"><path class="cls-6" d="M818.54,495.23c-3.72-.06,0,4,1,5,0,0,0,0,0,0-.74-1.09-4.1-4.56-1-4.89a0,0,0,0,0,0-.06Z"/></g><path class="cls-7" d="M835.3,451.08c5.63-2.7,12.74,6.74,14,10,2.15,5.59,1.11,10.41-.47,15.76.28-.94,3.53-3,4.31-4a19.93,19.93,0,0,0,3.26-5.67c1.67-4.81.6-8.47-2.22-12.79-4.11-6.28-12.75-7.15-19.38-3C835,451.26,835.13,451.17,835.3,451.08Z"/><path class="cls-10" d="M824.45,465.35c-7.4,8.07,3,25.31,14.95,18.1,2.41-1.46,4.71-3,6.12-5.24-3.69,3.19-10.78.52-14.27-1.29A11.48,11.48,0,0,1,826.1,472c-1-2.06-.85-4.45-1.65-6.66Z"/><g class="cls-9"><path class="cls-6" d="M833.22,433.68c-4.72,9.73-11.58,19-18.23,27.88a148.09,148.09,0,0,1-20.75,22.8s0,.05,0,0a168,168,0,0,0,20.66-22c7.16-8.88,14.11-18.47,18.33-28.69,0,0,0,0,0,0Z"/></g><path class="cls-5" d="M853.87,422.37c-6.83,22.85-46.91,62.51-66.15,70.9,8.24,4.81,23.29,14.84,27.63,23.34,15.48-.85,68.87-40.08,70.85-57.71C875.71,448.62,853.87,422.37,853.87,422.37Z"/><path class="cls-3" d="M853.87,422.37c-6.83,22.85-46.91,62.51-66.15,70.9,8.24,4.81,23.29,14.84,27.63,23.34,15.48-.85,68.87-40.08,70.85-57.71C875.71,448.62,853.87,422.37,853.87,422.37Z"/><path class="cls-6" d="M793.53,493.46l.93-.54c19-11.14,49.31-41.32,59.93-63.53l.54-1.12.82,1c6.69,7.92,19.09,22.39,26.88,30.26l.26.26-.1.34c-2,7.28-13.12,19.52-29,31.94s-29.48,19.65-36,21.41l-.59.16-.31-.46c-5.14-7.51-16.24-15.2-22.4-19.12ZM855.3,431c-11,22-40.16,51-59.06,62.49,7.36,4.74,16.69,11.6,21.6,18.49,6.6-2,19.7-9.11,34.86-20.95C868.16,479,879,467.19,881.17,460.12,873.65,452.48,862.08,439,855.3,431Z"/><path class="cls-7" d="M855.65,445.89c7.73,4.56,7-5.17,3.48-7.61C853.14,434.14,851.12,443.22,855.65,445.89Z"/><path class="cls-7" d="M870.6,457.78c-2,1.5-1.58,5.19-.59,7,1.47,2.73,4.42,3.23,6.57,1C879.89,462.4,875.85,453.77,870.6,457.78Z"/><path class="cls-7" d="M804.64,497.42c3.33,2.54,5.43.21,4.58-3-.59-2.15-6.59-5.92-7.81-2.38-.52,1.51,2,4.4,3.19,5.31Z"/><path class="cls-7" d="M815.1,506c.71,1.51,2.24,3.61,4.34,3.73,3.23.18,4.18-2.59,2.64-4.5C820.23,503,812.94,501.41,815.1,506Z"/><path class="cls-7" d="M844.46,459.41c-5.26,1.27-9.72,4.59-13.34,8A44.45,44.45,0,0,0,822,480.27c-2.3,5.29-.21,11.19,4.94,14.92,5.57,4,12.37,1.71,17.67-1.4,9-5.26,20-12.14,17.51-22.59C860.42,464.27,853.42,457.26,844.46,459.41Z"/><path class="cls-7" d="M844.46,459.41c-5.26,1.27-9.72,4.59-13.34,8A44.45,44.45,0,0,0,822,480.27c-2.3,5.29-.21,11.19,4.94,14.92,5.57,4,12.37,1.71,17.67-1.4,9-5.26,20-12.14,17.51-22.59C860.42,464.27,853.42,457.26,844.46,459.41Z"/><path class="cls-8" d="M845.23,494.63c8.23-4.82,20.76-12.17,18-23.64a17.75,17.75,0,0,0-8.71-11.3,14.66,14.66,0,0,0-10.37-1.26c-4.63,1.11-9.17,3.84-13.9,8.33a45.7,45.7,0,0,0-9.39,13.16,12,12,0,0,0-.8,7h0a14.71,14.71,0,0,0,6.07,9.05C829.57,498.45,835.67,500.24,845.23,494.63Zm-18.32.56c-5.15-3.73-7.24-9.63-4.94-14.92a44.45,44.45,0,0,1,9.15-12.83c3.62-3.44,8.08-6.76,13.34-8,9-2.15,16,4.86,17.63,11.79,2.5,10.45-8.52,17.33-17.51,22.59C839.28,496.9,832.48,499.23,826.91,495.19Z"/><g class="cls-9"><path class="cls-6" d="M855.16,438.2c-2.83,2-.63,7.88,3,8.06,0,0,0,0,0,0-3.29-1-5.3-5.48-3-8Z"/></g><g class="cls-9"><path class="cls-6" d="M871.32,458c-3.38,2.07-1.56,8,2.16,8.88,0,0,0,0,0,0-3-1.39-5-6.65-2.17-8.85,0,0,0,0,0,0Z"/></g><g class="cls-9"><path class="cls-6" d="M827.61,472.92c-4.57,4-6.92,9.75-5.33,15.28.93,3.23,4.8,8.78,9.27,8.41,0,0,0,0,0,0-5.13-.2-8.21-6.58-9-10.3-1-4.82,1.26-9.85,5.09-13.35Z"/></g><g class="cls-9"><path class="cls-6" d="M860.89,465c5.51,5.65,3.63,15.46-2,20.52,0,0,0,0,0,0,3-2.67,5.2-6.28,5.49-10,.29-3.53.15-8.23-3.41-10.58-.05,0-.13,0-.08.06Z"/></g><g class="cls-9"><path class="cls-6" d="M803.07,491.09c-3,1.49.25,4.71,1.91,5.91,0,0,0,0,0,0-1.3-1.37-4.52-4.36-1.92-5.88,0,0,0,0,0,0Z"/></g><g class="cls-9"><path class="cls-6" d="M816.94,503.42c-3.66-.54-.7,4,.13,5.05,0,0,0,0,0,0-.54-1.18-3.26-5-.16-5a0,0,0,0,0,0-.06Z"/></g><path class="cls-7" d="M841.1,461.86c6-1.95,11.42,8.31,12.09,11.7,1.15,5.82-.71,10.45-3.18,15.55.43-.9,4-2.55,4.94-3.42a21.06,21.06,0,0,0,4.19-5.19c2.49-4.55,2.06-8.31,0-12.95-3-6.75-11.36-8.73-18.62-5.47A5,5,0,0,1,841.1,461.86Z"/><path class="cls-10" d="M827.93,474.59c-8.7,7-1.36,25.46,11.65,19.85,2.63-1.13,5.16-2.34,6.93-4.4-4.19,2.69-10.73-.88-13.86-3.11a10.82,10.82,0,0,1-4.24-5.53c-.6-2.17-.07-4.52-.48-6.81Z"/><g class="cls-9"><path class="cls-6" d="M842.05,444.36c-6.34,9-14.72,17.36-22.81,25.26a157.66,157.66,0,0,1-24.42,19.9,0,0,0,1,0,0,0,178.7,178.7,0,0,0,24.2-19.14c8.6-7.87,17.12-16.47,23.05-26,0,0,0,0-.05,0Z"/></g><path class="cls-4" d="M647.42,597V510.92h19.42v10a29.41,29.41,0,0,1,9.06-9A21.52,21.52,0,0,1,687.09,509a29.32,29.32,0,0,1,11.37,2.11,23.69,23.69,0,0,1,8.76,6.36q7.39,8.47,7.4,23.39,0,14.32-7.4,23.15a24.66,24.66,0,0,1-8.56,6.69,25.75,25.75,0,0,1-10.86,2.19q-7.63,0-12.38-2.78-4.56-2.67-8.46-9.24a35.22,35.22,0,0,1,.47,4.38q.12,1.72.12,6.28V597Zm18.71-56.1q0,7,3.72,11.05,3.42,4,9.93,4t10-4q3.6-4.14,3.6-11.05t-3.6-11q-3.66-4-10-4t-9.93,4Q666.13,533.81,666.13,540.9Z"/><circle class="cls-4" cx="475.49" cy="494.9" r="9.7"/><path class="cls-2" d="M298.24,670.09V658.24l-8.54-13.88h2.81l6.91,11.79,6.94-11.79H309l-8.45,13.88v11.85Z"/><path class="cls-2" d="M315.18,670.78a7.93,7.93,0,0,1-3.19-.66,9,9,0,0,1-2.78-1.89,7.89,7.89,0,0,1-1.79-2.68,8.26,8.26,0,0,1-.62-3.23,8.38,8.38,0,0,1,.63-3.23,8.42,8.42,0,0,1,4.54-4.54,8.35,8.35,0,0,1,3.21-.63,8.63,8.63,0,0,1,3.28.63,8.34,8.34,0,0,1,5.27,7.77,8.14,8.14,0,0,1-.64,3.21,8.3,8.3,0,0,1-1.82,2.7,8.7,8.7,0,0,1-2.81,1.89A8.39,8.39,0,0,1,315.18,670.78Zm.07-2a5.8,5.8,0,0,0,4.36-1.85,6.72,6.72,0,0,0,0-9.11,6,6,0,0,0-8.7,0,6.75,6.75,0,0,0,0,9.11A5.77,5.77,0,0,0,315.25,668.75Z"/><path class="cls-2" d="M330.35,654.5v7.79q0,3.54,1,5a3.83,3.83,0,0,0,3.41,1.46,3.9,3.9,0,0,0,3.43-1.47q1-1.49,1-5V654.5h2.14v8.89a8,8,0,0,1-1.67,5.51,6.21,6.21,0,0,1-4.9,1.88,6.3,6.3,0,0,1-4.94-1.88,7.94,7.94,0,0,1-1.69-5.51V654.5Z"/><path class="cls-2" d="M349.32,657.63a9.55,9.55,0,0,1,2.35-2.87,4.43,4.43,0,0,1,2.68-.84,4.86,4.86,0,0,1,.92.09,5.93,5.93,0,0,1,.92.24l-.7,2a5.55,5.55,0,0,0-.73-.17A3.71,3.71,0,0,0,354,656a4.07,4.07,0,0,0-3.33,1.83,7.36,7.36,0,0,0-1.38,4.56v7.66h-2.16V654.5h2.16Z"/><path class="cls-2" d="M390.28,650.82a10.69,10.69,0,0,0-3.85-3.67,10.58,10.58,0,0,0-5.15-1.25,10.15,10.15,0,0,0-7.79,3.24,11.82,11.82,0,0,0-3,8.38,11.62,11.62,0,0,0,.8,4.34,10.74,10.74,0,0,0,2.32,3.62,10.31,10.31,0,0,0,3.47,2.35,11,11,0,0,0,4.2.78,9.87,9.87,0,0,0,7-2.55,8.89,8.89,0,0,0,2.78-6.66h-8.87v-2h11.44v.28q0,6.15-3.36,9.63c-2.23,2.33-5.32,3.49-9.24,3.49a12.66,12.66,0,0,1-9.48-3.73,13.45,13.45,0,0,1-3.62-9.77,14.94,14.94,0,0,1,.92-5.25,12.49,12.49,0,0,1,2.63-4.3,12.36,12.36,0,0,1,4.21-3,13.35,13.35,0,0,1,5.23-1,14.78,14.78,0,0,1,6.72,1.41,9.87,9.87,0,0,1,4.3,4.16Z"/><path class="cls-2" d="M400.44,654.5v7.79c0,2.36.34,4,1,5a3.84,3.84,0,0,0,3.42,1.46,3.92,3.92,0,0,0,3.43-1.47q1-1.49,1-5V654.5h2.15v8.89a8,8,0,0,1-1.67,5.51,6.24,6.24,0,0,1-4.91,1.88A6.33,6.33,0,0,1,400,668.9a8,8,0,0,1-1.68-5.51V654.5Z"/><path class="cls-2" d="M416.84,648.42a1.56,1.56,0,0,1,.49-1.17,1.6,1.6,0,0,1,1.18-.49,1.64,1.64,0,0,1,1.19.49,1.57,1.57,0,0,1,.5,1.17,1.55,1.55,0,0,1-.49,1.17,1.73,1.73,0,0,1-2.39,0A1.58,1.58,0,0,1,416.84,648.42Zm.54,21.67V654.5h2.24v15.59Z"/><path class="cls-2" d="M437.07,670.09v-2.85a5.61,5.61,0,0,1-5.43,3.54,6.89,6.89,0,0,1-5.41-2.31,8.82,8.82,0,0,1-2-6.08,9.06,9.06,0,0,1,2-6.11,6.57,6.57,0,0,1,5.22-2.36,6.49,6.49,0,0,1,3.42.87,5.77,5.77,0,0,1,2.22,2.56V642.84h2.2v27.25Zm-10.48-7.63a7.08,7.08,0,0,0,1.37,4.66,4.77,4.77,0,0,0,3.89,1.63A4.63,4.63,0,0,0,435.7,667a7.73,7.73,0,0,0,1.41-4.91,6.79,6.79,0,0,0-1.39-4.51,5.21,5.21,0,0,0-7.7.1A7.41,7.41,0,0,0,426.59,662.46Z"/><path class="cls-2" d="M458.39,662.36H446a7.6,7.6,0,0,0,1.51,4.74,4.69,4.69,0,0,0,3.82,1.72,5.06,5.06,0,0,0,3-.93,6.82,6.82,0,0,0,2.16-2.81l2,1.09a8.6,8.6,0,0,1-2.93,3.49,7.7,7.7,0,0,1-4.24,1.12,7.2,7.2,0,0,1-5.55-2.3,8.52,8.52,0,0,1-2.12-6,9,9,0,0,1,2.1-6.19,7,7,0,0,1,5.5-2.35,6.62,6.62,0,0,1,5.18,2.17,8.35,8.35,0,0,1,1.95,5.79Zm-2.56-1.85A4.48,4.48,0,0,0,451,656a4.65,4.65,0,0,0-3.3,1.23,5,5,0,0,0-1.54,3.27Z"/><path class="cls-2" d="M478.15,670.09V646.55h-7.08v-2.19h16.52v2.19h-7.1v23.54Z"/><path class="cls-2" d="M494,670.78a8,8,0,0,1-3.2-.66,9,9,0,0,1-2.77-1.89,7.91,7.91,0,0,1-1.8-2.68,8.72,8.72,0,0,1,0-6.46,8.26,8.26,0,0,1,1.81-2.71,8.27,8.27,0,0,1,5.94-2.46,8.66,8.66,0,0,1,3.28.63,8.36,8.36,0,0,1,2.77,1.83,8.25,8.25,0,0,1,2.49,5.94,8.31,8.31,0,0,1-.63,3.21,8.18,8.18,0,0,1-1.83,2.7,8.66,8.66,0,0,1-2.8,1.89A8.39,8.39,0,0,1,494,670.78Zm.07-2a5.79,5.79,0,0,0,4.35-1.85,6.7,6.7,0,0,0,0-9.11,6,6,0,0,0-8.7,0,6.72,6.72,0,0,0,0,9.11A5.75,5.75,0,0,0,494,668.75Z"/><path class="cls-2" d="M517.67,670.09V644.36h12.74v2.19H520v8.05h10v2.2H520v13.29Z"/><path class="cls-2" d="M533.7,648.42a1.56,1.56,0,0,1,.49-1.17,1.67,1.67,0,0,1,2.36,0,1.55,1.55,0,0,1,.51,1.17,1.59,1.59,0,0,1-.49,1.17,1.73,1.73,0,0,1-2.39,0A1.58,1.58,0,0,1,533.7,648.42Zm.54,21.67V654.5h2.24v15.59Z"/><path class="cls-2" d="M542.38,670.09V654.5h2.06v2.41a6.22,6.22,0,0,1,2.33-2.24,6.54,6.54,0,0,1,3.17-.75,5.12,5.12,0,0,1,5.61,5.59v10.58h-2.2v-9.62a5.24,5.24,0,0,0-1-3.47,3.81,3.81,0,0,0-3-1.13,4.39,4.39,0,0,0-3.65,1.47,7.37,7.37,0,0,0-1.17,4.61v8.14Z"/><path class="cls-2" d="M572.65,670.09v-2.85a5.87,5.87,0,0,1-2.17,2.63,6,6,0,0,1-3.3.91,6.87,6.87,0,0,1-5.4-2.31,8.78,8.78,0,0,1-2-6.08,9.11,9.11,0,0,1,2-6.11,7.05,7.05,0,0,1,8.66-1.49,5.69,5.69,0,0,1,2.24,2.56V654.5h2.16v15.59Zm-10.51-7.63a7.08,7.08,0,0,0,1.36,4.66,4.79,4.79,0,0,0,3.9,1.63,4.66,4.66,0,0,0,3.87-1.78,7.73,7.73,0,0,0,1.42-4.91,6.69,6.69,0,0,0-1.41-4.51,4.79,4.79,0,0,0-3.85-1.65,4.75,4.75,0,0,0-3.87,1.75A7.41,7.41,0,0,0,562.14,662.46Z"/><path class="cls-2" d="M580.61,670.09V654.5h2.06v2.41a6.22,6.22,0,0,1,2.33-2.24,6.54,6.54,0,0,1,3.17-.75,5.12,5.12,0,0,1,5.61,5.59v10.58h-2.2v-9.62a5.24,5.24,0,0,0-1-3.47,3.79,3.79,0,0,0-3-1.13,4.35,4.35,0,0,0-3.64,1.47,7.37,7.37,0,0,0-1.17,4.61v8.14Z"/><path class="cls-2" d="M611.5,657.35a8.21,8.21,0,0,0-2.32-1.14,8.67,8.67,0,0,0-2.53-.38,6,6,0,0,0-4.63,1.86,7,7,0,0,0-1.72,4.95,6.1,6.1,0,0,0,1.79,4.51,6.17,6.17,0,0,0,4.56,1.78,8.06,8.06,0,0,0,2.56-.44,10,10,0,0,0,2.54-1.32v2.37a9.45,9.45,0,0,1-2.54,1,12.75,12.75,0,0,1-3,.33,7.82,7.82,0,0,1-5.85-2.35,8.28,8.28,0,0,1-2.29-6,8.18,8.18,0,0,1,8.58-8.58,12.46,12.46,0,0,1,2.65.27,8.64,8.64,0,0,1,2.2.78Z"/><path class="cls-2" d="M615.38,648.42a1.69,1.69,0,0,1,1.67-1.66,1.62,1.62,0,0,1,1.19.49,1.64,1.64,0,0,1,0,2.34,1.65,1.65,0,0,1-1.21.48,1.6,1.6,0,0,1-1.18-.48A1.55,1.55,0,0,1,615.38,648.42Zm.55,21.67V654.5h2.23v15.59Z"/><path class="cls-2" d="M635.58,670.09v-2.85a5.87,5.87,0,0,1-2.17,2.63,6,6,0,0,1-3.3.91,6.87,6.87,0,0,1-5.4-2.31,8.78,8.78,0,0,1-2.05-6.08,9.06,9.06,0,0,1,2-6.11,7.05,7.05,0,0,1,8.66-1.49,5.69,5.69,0,0,1,2.24,2.56V654.5h2.16v15.59Zm-10.51-7.63a7.08,7.08,0,0,0,1.36,4.66,4.79,4.79,0,0,0,3.9,1.63A4.66,4.66,0,0,0,634.2,667a7.73,7.73,0,0,0,1.42-4.91,6.69,6.69,0,0,0-1.41-4.51,4.79,4.79,0,0,0-3.85-1.65,4.75,4.75,0,0,0-3.87,1.75A7.41,7.41,0,0,0,625.07,662.46Z"/><path class="cls-2" d="M645.92,670.09h-2.24V642.84h2.24Z"/><path class="cls-2" d="M662.51,670.09V644.36h12.74v2.19h-10.4v8.05h10v2.2h-10v13.29Z"/><path class="cls-2" d="M680.42,657.63a9.55,9.55,0,0,1,2.35-2.87,4.43,4.43,0,0,1,2.68-.84,4.86,4.86,0,0,1,.92.09,6.36,6.36,0,0,1,.93.24l-.71,2a5.2,5.2,0,0,0-.73-.17,3.71,3.71,0,0,0-.73-.08,4.07,4.07,0,0,0-3.33,1.83,7.36,7.36,0,0,0-1.38,4.56v7.66h-2.16V654.5h2.16Z"/><path class="cls-2" d="M703,662.36H690.6a7.6,7.6,0,0,0,1.51,4.74,4.69,4.69,0,0,0,3.82,1.72,5.06,5.06,0,0,0,3-.93,6.82,6.82,0,0,0,2.16-2.81l2,1.09a8.6,8.6,0,0,1-2.93,3.49,7.7,7.7,0,0,1-4.24,1.12,7.2,7.2,0,0,1-5.55-2.3,8.52,8.52,0,0,1-2.12-6,9,9,0,0,1,2.1-6.19,7,7,0,0,1,5.5-2.35,6.62,6.62,0,0,1,5.18,2.17,8.35,8.35,0,0,1,2,5.79Zm-2.56-1.85a4.48,4.48,0,0,0-4.85-4.5,4.65,4.65,0,0,0-3.3,1.23,5,5,0,0,0-1.54,3.27Z"/><path class="cls-2" d="M720.89,662.36H708.5A7.54,7.54,0,0,0,710,667.1a4.69,4.69,0,0,0,3.81,1.72,5,5,0,0,0,3-.93,6.92,6.92,0,0,0,2.17-2.81l2,1.09a8.58,8.58,0,0,1-2.92,3.49,7.73,7.73,0,0,1-4.25,1.12,7.19,7.19,0,0,1-5.54-2.3,8.48,8.48,0,0,1-2.12-6,9,9,0,0,1,2.1-6.19,7,7,0,0,1,5.49-2.35,6.63,6.63,0,0,1,5.19,2.17,8.35,8.35,0,0,1,1.95,5.79Zm-2.57-1.85a4.46,4.46,0,0,0-4.85-4.5,4.69,4.69,0,0,0-3.3,1.23,5,5,0,0,0-1.53,3.27Z"/><path class="cls-2" d="M736.94,670.09v-2.85a5.63,5.63,0,0,1-5.44,3.54,6.87,6.87,0,0,1-5.4-2.31,8.78,8.78,0,0,1-2.05-6.08,9.11,9.11,0,0,1,2-6.11,6.57,6.57,0,0,1,5.22-2.36,6.44,6.44,0,0,1,3.42.87,5.73,5.73,0,0,1,2.23,2.56V642.84h2.19v27.25Zm-10.48-7.63a7.08,7.08,0,0,0,1.36,4.66,4.79,4.79,0,0,0,3.9,1.63,4.65,4.65,0,0,0,3.85-1.78,7.79,7.79,0,0,0,1.4-4.91,6.74,6.74,0,0,0-1.39-4.51,5.21,5.21,0,0,0-7.7.1A7.41,7.41,0,0,0,726.46,662.46Z"/><path class="cls-2" d="M752,670.78a8,8,0,0,1-3.2-.66,9,9,0,0,1-2.78-1.89,8,8,0,0,1-1.79-2.68,8.45,8.45,0,0,1-.62-3.23,8.2,8.2,0,0,1,.64-3.23,8.44,8.44,0,0,1,4.53-4.54,8.36,8.36,0,0,1,3.22-.63,8.66,8.66,0,0,1,3.28.63,8.53,8.53,0,0,1,4.62,4.55,8.22,8.22,0,0,1,.64,3.22,8.31,8.31,0,0,1-.63,3.21,8.18,8.18,0,0,1-1.83,2.7,8.66,8.66,0,0,1-2.8,1.89A8.43,8.43,0,0,1,752,670.78Zm.07-2a5.79,5.79,0,0,0,4.35-1.85,6.73,6.73,0,0,0,0-9.11,6,6,0,0,0-8.7,0,6.72,6.72,0,0,0,0,9.11A5.75,5.75,0,0,0,752,668.75Z"/><path class="cls-2" d="M767.12,670.09H765V654.5h2.16v2.44a5.58,5.58,0,0,1,2-2.25,5.51,5.51,0,0,1,2.92-.77,5.21,5.21,0,0,1,2.9.78,5,5,0,0,1,1.86,2.29,5.92,5.92,0,0,1,5.43-3.07,5.12,5.12,0,0,1,3.9,1.5,5.75,5.75,0,0,1,1.43,4.12v10.55h-2.17V660.4a5.35,5.35,0,0,0-.94-3.44,3.39,3.39,0,0,0-2.8-1.16,3.77,3.77,0,0,0-3.28,1.46,8,8,0,0,0-1,4.62v8.21h-2.15V660.4a5.55,5.55,0,0,0-.89-3.49,3.37,3.37,0,0,0-2.78-1.11,3.86,3.86,0,0,0-3.36,1.48,7.9,7.9,0,0,0-1.07,4.6Z"/></g></g></svg>